<svg xmlns="http://www.w3.org/2000/svg" fill="none" viewBox="0 0 28 28"><path fill="#D9D9D9" d="M12.916.872c0 .016-.113.026-.288.026-.176 0-.289.011-.289.027s-.086.027-.21.027c-.123 0-.21.01-.21.027 0 .016-.07.026-.157.026-.086 0-.157.011-.157.027s-.07.027-.157.027-.157.01-.157.027c0 .013-.058.026-.131.026-.071 0-.132.011-.132.027 0 .013-.047.027-.104.027-.058 0-.105.01-.105.027 0 .013-.047.026-.102.026-.058 0-.113.011-.121.027-.008.013-.068.027-.134.027-.063 0-.115.01-.115.027 0 .013-.034.026-.079.026-.042 0-.078.011-.078.027 0 .013-.034.027-.079.027-.042 0-.079.01-.079.027 0 .013-.039.026-.089.026-.05 0-.1.011-.107.027-.008.013-.05.027-.095.027-.042 0-.076.01-.076.027 0 .013-.034.026-.078.026-.042 0-.079.011-.079.027 0 .013-.029.027-.063.027-.036 0-.073.01-.081.027-.008.013-.04.026-.068.026-.026 0-.05.011-.05.027 0 .013-.034.027-.079.027-.042 0-.078.01-.078.027 0 .013-.03.026-.063.026-.037 0-.074.011-.081.027-.008.013-.04.027-.069.027-.026 0-.05.01-.05.027 0 .013-.028.026-.062.026-.037 0-.074.011-.082.027-.007.013-.039.027-.068.027-.026 0-.05.01-.05.027 0 .013-.023.026-.052.026-.029 0-.052.011-.052.027 0 .013-.024.027-.053.027-.029 0-.052.01-.052.027 0 .013-.024.026-.053.026-.029 0-.052.011-.052.027 0 .013-.029.027-.063.027-.037 0-.073.01-.081.027-.008.013-.04.026-.068.026-.027 0-.05.011-.05.027 0 .013-.024.027-.05.027-.029 0-.055.008-.06.019-.01.026-.15.112-.21.133-.026.008-.047.024-.047.038 0 .013-.024.024-.053.024-.029 0-.052.01-.052.027 0 .013-.024.026-.053.026-.028 0-.052.011-.052.027 0 .013-.024.027-.052.027-.03 0-.053.01-.053.027 0 .013-.018.026-.04.026-.023 0-.065.024-.096.054-.032.03-.074.053-.092.053-.018 0-.034.011-.034.027 0 .013-.021.027-.047.027s-.063.024-.084.053c-.021.03-.053.054-.073.054-.019 0-.058.024-.09.053-.031.03-.073.054-.091.054-.019 0-.034.01-.034.027 0 .013-.021.026-.048.026-.026 0-.063.024-.083.054-.021.03-.056.053-.08.053-.023 0-.057.024-.078.054-.02.03-.052.053-.068.053-.016 0-.065.035-.11.08-.047.043-.1.08-.118.08-.018 0-.05.025-.07.054-.022.03-.053.054-.069.054-.016 0-.065.035-.11.08a.451.451 0 0 1-.105.08.734.734 0 0 0-.162.134.814.814 0 0 1-.166.134.473.473 0 0 0-.123.107.426.426 0 0 1-.128.107c-.037 0-1.366 1.353-1.366 1.39 0 .014-.06.089-.131.164a.644.644 0 0 0-.131.163.473.473 0 0 1-.105.128.432.432 0 0 0-.105.132c0 .016-.034.066-.078.115-.042.045-.08.096-.08.112s-.023.048-.052.07c-.028.02-.052.056-.052.074 0 .022-.034.073-.079.113-.042.04-.078.09-.078.112 0 .019-.024.054-.053.075-.029.021-.052.056-.052.08s-.024.059-.053.08c-.028.022-.052.054-.052.075 0 .019-.024.06-.052.091-.03.032-.053.075-.053.094 0 .019-.01.035-.026.035-.013 0-.026.021-.026.048s-.024.064-.053.085c-.029.022-.052.054-.052.075 0 .019-.024.06-.053.091-.028.032-.052.075-.052.094 0 .019-.01.035-.026.035-.013 0-.026.024-.026.053 0 .03-.01.054-.027.054-.013 0-.026.024-.026.053 0 .03-.01.054-.026.054-.013 0-.026.018-.026.04 0 .024-.024.067-.053.099-.029.032-.052.075-.052.093 0 .02-.01.035-.026.035-.013 0-.027.024-.027.054 0 .029-.01.053-.026.053-.013 0-.026.024-.026.054 0 .029-.01.053-.026.053-.013 0-.026.024-.026.054 0 .029-.01.053-.027.053-.013 0-.026.024-.026.054 0 .029-.01.053-.026.053-.013 0-.026.024-.026.054 0 .029-.01.053-.026.053-.014 0-.027.03-.027.064 0 .038-.01.075-.026.083-.013.008-.026.04-.026.07 0 .027-.01.05-.026.05-.013 0-.027.025-.027.054 0 .03-.01.054-.026.054-.013 0-.026.024-.026.053 0 .03-.01.054-.026.054-.013 0-.026.024-.026.05 0 .03-.014.062-.027.07-.015.008-.026.045-.026.083 0 .035-.01.064-.026.064-.013 0-.026.035-.026.08 0 .043-.01.08-.026.08-.014 0-.027.025-.027.054 0 .03-.01.054-.026.054-.013 0-.026.034-.026.08 0 .043-.01.08-.026.08-.013 0-.027.03-.027.064 0 .038-.01.075-.026.083-.013.008-.026.046-.026.08 0 .035-.013.073-.026.08-.016.009-.026.052-.026.097 0 .043-.01.078-.027.078-.013 0-.026.034-.026.08 0 .043-.01.08-.026.08-.013 0-.026.035-.026.078 0 .045-.013.088-.026.096-.016.008-.027.059-.027.11 0 .05-.01.09-.026.09-.013 0-.026.049-.026.107 0 .06-.01.107-.026.107-.013 0-.027.049-.027.107 0 .06-.01.107-.026.107-.013 0-.026.049-.026.105 0 .059-.013.115-.026.123-.016.008-.026.07-.026.136 0 .064-.01.118-.027.118-.013 0-.026.064-.026.144 0 .08-.01.156-.026.164-.013.008-.026.088-.026.176s-.01.158-.026.158-.027.08-.027.184c0 .126-.01.19-.031.196-.026.01-.034.38-.034 1.733 0 1.354.008 1.723.034 1.73.02.009.031.081.031.236 0 .123.013.233.027.241.015.008.026.075.026.15 0 .072.013.13.026.13.016 0 .026.06.026.135 0 .072.013.133.026.133.016 0 .027.06.027.134 0 .072.013.134.026.134.016 0 .026.059.026.134 0 .072.013.133.026.133.016 0 .026.048.026.107 0 .06.014.107.027.107.015 0 .026.035.026.078 0 .045.013.088.026.096.016.008.026.059.026.11 0 .05.013.09.027.09.015 0 .026.04.026.092 0 .05.013.101.026.11.016.007.026.05.026.096 0 .043.013.077.026.077.016 0 .027.035.027.08 0 .043.013.08.026.08.016 0 .026.035.026.081 0 .043.013.08.026.08.016 0 .026.024.026.051 0 .03.014.062.027.07.015.008.026.045.026.082 0 .035.013.065.026.065.016 0 .026.035.026.08 0 .043.013.08.027.08.015 0 .026.03.026.064 0 .038.01.075.026.083.013.008.026.04.026.07 0 .027.013.05.026.05.016 0 .027.03.027.065 0 .037.013.075.026.083.016.008.026.04.026.07 0 .026.013.05.026.05.016 0 .026.024.026.054s.014.053.027.053c.015 0 .026.024.026.054s.013.053.026.053c.016 0 .026.024.026.054s.013.053.027.053c.015 0 .026.024.026.054s.013.053.026.053c.016 0 .026.019.026.04 0 .022.01.062.024.089.013.024.05.101.081.17.034.073.07.13.084.13.01 0 .02.023.02.053s.014.053.027.053c.016 0 .026.024.026.054s.013.053.027.053c.015 0 .026.016.026.035 0 .019.023.061.052.094.029.032.053.075.053.098 0 .022.013.04.026.04.016 0 .026.025.026.054 0 .03.013.054.026.054.016 0 .026.024.026.053 0 .03.01.054.021.054.014 0 .04.032.06.075.022.04.058.096.085.123.023.029.044.07.044.088 0 .019.01.035.021.035.013 0 .04.032.06.072a.533.533 0 0 0 .082.118c.026.024.047.061.047.08 0 .021.023.056.052.077.03.022.053.057.053.08 0 .025.023.06.052.08.029.022.053.057.053.081s.023.059.052.08c.029.022.052.054.052.07 0 .016.048.08.105.142a.498.498 0 0 1 .105.136c0 .014.047.078.105.137a.545.545 0 0 1 .105.136c0 .016.034.062.079.102.041.04.078.088.078.101 0 .016.102.137.23.265.127.131.26.278.294.33.08.114.436.478.57.58.054.04.19.168.3.28.11.115.213.209.226.209.013 0 .074.048.134.107a.496.496 0 0 0 .131.107c.013 0 .07.048.131.107a.45.45 0 0 0 .136.107c.016 0 .063.035.103.08.039.043.083.08.097.08.01 0 .062.038.112.08.05.044.108.081.126.081.016 0 .032.01.032.021 0 .014.031.04.07.062a.564.564 0 0 1 .124.085c.028.025.068.046.086.046.018 0 .034.01.034.021 0 .014.032.04.074.062.039.021.089.059.112.083.024.027.063.048.087.048.023 0 .042.01.042.027 0 .013.023.026.052.026.029 0 .053.011.053.027 0 .014.018.027.039.027.023 0 .065.024.097.053.031.03.073.054.092.054.018 0 .034.01.034.027 0 .013.023.027.052.027.029 0 .053.01.053.026 0 .014.023.027.052.027.029 0 .052.01.052.027 0 .013.016.026.034.026.019 0 .06.025.092.054.032.03.074.053.097.053.021 0 .04.011.04.027 0 .014.023.027.052.027.029 0 .052.01.052.027 0 .013.024.026.05.026.03 0 .06.011.068.027.008.014.045.027.082.027.034 0 .063.01.063.027 0 .013.023.027.052.027.029 0 .052.01.052.026 0 .014.024.027.053.027.029 0 .052.01.052.027 0 .013.024.027.053.027.029 0 .052.01.052.026 0 .014.024.027.053.027.028 0 .052.01.052.027 0 .013.024.026.05.026.029 0 .06.011.068.027.008.014.045.027.081.027.034 0 .063.01.063.027 0 .013.037.026.079.026.044 0 .078.011.078.027 0 .014.024.027.05.027.029 0 .06.01.068.027.008.013.045.026.082.026.034 0 .063.011.063.027 0 .014.036.027.078.027.045 0 .079.01.079.027 0 .013.023.027.05.027.028 0 .06.013.068.026.008.016.044.027.081.027.034 0 .063.01.063.027 0 .016.118.027.299.027.173 0 .306-.011.317-.027.008-.016.034-.027.058-.027.07 0 .322-.28.322-.359 0-.037.013-.069.026-.069.019 0 .027-.49.027-1.418v-1.417h-.158c-.086 0-.157.01-.157.026s-.079.027-.183.027c-.105 0-.184.01-.184.027 0 .016-.244.027-.682.027-.437 0-.681-.011-.681-.027s-.079-.027-.184-.027-.183-.01-.183-.027c0-.016-.063-.026-.142-.026-.078 0-.152-.014-.16-.027-.007-.016-.063-.027-.12-.027-.055 0-.102-.013-.102-.027 0-.016-.024-.026-.053-.026-.029 0-.052-.014-.052-.027 0-.016-.034-.027-.079-.027-.042 0-.079-.013-.079-.027 0-.016-.023-.026-.052-.026-.029 0-.052-.014-.052-.027 0-.016-.024-.027-.053-.027-.029 0-.052-.013-.052-.027 0-.016-.021-.026-.047-.026-.027 0-.063-.025-.084-.054-.021-.03-.055-.053-.079-.053s-.058-.024-.079-.054c-.02-.03-.052-.053-.068-.053-.037 0-.377-.332-.377-.37a.32.32 0 0 0-.079-.106c-.042-.049-.079-.102-.079-.124 0-.021-.007-.042-.018-.048-.029-.01-.139-.232-.139-.278 0-.021-.01-.037-.026-.037-.013 0-.026-.024-.026-.054s-.01-.053-.026-.053c-.014 0-.027-.03-.027-.065 0-.037-.01-.075-.026-.083-.013-.008-.026-.04-.026-.069 0-.027-.01-.05-.026-.05-.013 0-.027-.025-.027-.054 0-.03-.01-.054-.026-.054-.013 0-.026-.024-.026-.053 0-.03-.01-.054-.026-.054-.013 0-.026-.024-.026-.053 0-.03-.01-.054-.027-.054-.013 0-.026-.024-.026-.053 0-.03-.01-.054-.026-.054-.013 0-.026-.024-.026-.053 0-.03-.01-.054-.026-.054-.014 0-.027-.021-.027-.048s-.023-.064-.052-.086c-.029-.021-.053-.053-.053-.07 0-.015-.034-.066-.078-.111-.042-.049-.079-.097-.079-.113s-.034-.064-.079-.112a.368.368 0 0 1-.078-.107c0-.035-.336-.37-.37-.37-.015 0-.05-.02-.073-.047a.572.572 0 0 0-.113-.083c-.042-.022-.073-.049-.073-.062 0-.01-.019-.021-.04-.021-.023 0-.08-.04-.13-.091a1.165 1.165 0 0 0-.168-.14c-.045-.026-.082-.069-.082-.096 0-.026-.01-.048-.02-.048-.014 0-.04-.032-.061-.075a.395.395 0 0 0-.06-.09c-.032-.022.047-.102.1-.102.023 0 .041-.014.041-.027 0-.016.079-.027.184-.027.126 0 .183-.01.183-.032 0-.024.008-.024.032 0 .018.019.1.032.183.032.084 0 .152.01.152.027 0 .013.037.027.079.027.044 0 .079.01.079.027 0 .013.028.026.062.026.037 0 .074.014.082.027.008.016.04.027.068.027.026 0 .05.01.05.026 0 .014.015.027.034.027.018 0 .06.024.092.054.031.03.073.053.097.053.02 0 .039.01.039.027 0 .013.02.027.047.027.026 0 .063.024.084.053.02.03.052.054.073.054.045 0 .611.58.658.674.021.043.047.075.06.075.011 0 .022.016.022.034 0 .02.023.062.052.094.029.032.052.072.052.091 0 .021.024.053.053.075.029.021.052.056.052.08s.024.059.053.08c.029.022.052.054.052.073 0 .018.04.08.09.133.3.34.366.41.387.41a.38.38 0 0 1 .105.08c.045.045.092.08.105.08.013 0 .047.024.079.054.031.03.073.053.091.053.019 0 .034.01.034.027 0 .013.024.027.053.027.029 0 .052.01.052.026 0 .014.024.027.053.027.029 0 .052.01.052.027 0 .013.037.027.079.027.044 0 .078.01.078.026 0 .014.037.027.08.027.044 0 .078.01.078.027 0 .016.07.027.157.027.086 0 .157.01.157.026s.105.027.262.027c.158 0 .263-.01.263-.027 0-.016.104-.026.262-.026.157 0 .262-.011.262-.027s.057-.027.128-.027c.074 0 .14-.013.147-.027.008-.016.058-.026.108-.026.05 0 .089-.014.089-.027 0-.016.036-.027.078-.027.045 0 .079-.013.079-.027 0-.016.037-.026.079-.026.044 0 .078-.014.078-.027 0-.016.024-.027.053-.027.028 0 .052-.013.052-.027 0-.016.024-.026.053-.026.044 0 .052-.02.052-.134 0-.075.013-.134.026-.134.016 0 .026-.061.026-.134 0-.075.014-.133.027-.133.015 0 .026-.038.026-.08 0-.046.013-.08.026-.08.016 0 .026-.038.026-.081 0-.046.013-.08.027-.08.015 0 .026-.024.026-.051 0-.03.013-.062.026-.07.016-.008.026-.043.026-.075 0-.034.024-.077.052-.099.03-.021.053-.058.053-.085 0-.027.013-.048.026-.048.016 0 .026-.022.026-.049 0-.026.024-.064.053-.085.029-.021.052-.054.052-.07 0-.018.071-.107.158-.195.162-.168.193-.243.107-.243-.029 0-.06-.011-.068-.027-.008-.013-.097-.027-.197-.027s-.188-.01-.196-.026c-.008-.014-.097-.027-.2-.027-.102 0-.18-.011-.18-.027s-.058-.027-.132-.027c-.07 0-.13-.013-.13-.027 0-.016-.053-.026-.116-.026-.066 0-.126-.014-.134-.027-.008-.016-.063-.027-.12-.027-.055 0-.102-.013-.102-.027 0-.016-.048-.026-.103-.026-.057 0-.112-.014-.12-.027-.008-.016-.058-.027-.108-.027-.05 0-.089-.013-.089-.026 0-.017-.034-.027-.079-.027-.041 0-.078-.014-.078-.027 0-.016-.034-.027-.079-.027-.042 0-.078-.013-.078-.026 0-.017-.024-.027-.05-.027-.03 0-.06-.014-.068-.027-.008-.016-.045-.027-.082-.027-.034 0-.063-.013-.063-.026 0-.017-.023-.027-.052-.027-.029 0-.052-.014-.052-.027 0-.016-.024-.027-.05-.027-.03 0-.06-.013-.068-.027-.008-.016-.045-.026-.082-.026-.034 0-.063-.014-.063-.027 0-.016-.023-.027-.052-.027-.029 0-.052-.013-.052-.027 0-.016-.024-.026-.053-.026-.029 0-.052-.011-.052-.024 0-.014-.021-.03-.045-.038-.063-.021-.202-.107-.212-.133-.005-.011-.032-.02-.06-.02-.027 0-.05-.013-.05-.026 0-.016-.016-.027-.034-.027-.019 0-.06-.024-.092-.053-.032-.03-.07-.054-.09-.054-.02 0-.052-.024-.073-.053-.02-.03-.052-.054-.068-.054-.016 0-.065-.037-.11-.08a.397.397 0 0 0-.107-.08c-.04 0-.737-.717-.737-.755 0-.021-.024-.053-.052-.074-.03-.022-.053-.054-.053-.073 0-.018-.037-.072-.079-.12-.044-.046-.078-.099-.078-.118 0-.021-.01-.037-.026-.037-.013 0-.027-.024-.027-.054s-.01-.053-.026-.053c-.013 0-.026-.024-.026-.054s-.01-.053-.026-.053c-.013 0-.026-.016-.026-.035a.26.26 0 0 0-.053-.099.254.254 0 0 1-.052-.128c0-.032-.01-.06-.026-.06-.014 0-.027-.023-.027-.053s-.01-.053-.026-.053c-.013 0-.026-.024-.026-.054s-.01-.053-.026-.053c-.013 0-.027-.024-.027-.051 0-.03-.01-.062-.026-.07-.013-.008-.026-.045-.026-.082 0-.035-.01-.065-.026-.065-.013 0-.026-.037-.026-.08 0-.045-.01-.08-.027-.08-.013 0-.026-.038-.026-.08 0-.046-.01-.08-.026-.08-.013 0-.026-.038-.026-.08 0-.046-.01-.081-.026-.081-.014 0-.027-.048-.027-.107s-.01-.107-.026-.107c-.013 0-.026-.04-.026-.091 0-.05-.013-.102-.026-.11-.016-.008-.027-.064-.027-.123 0-.056-.01-.104-.026-.104s-.026-.072-.026-.16c0-.089-.01-.161-.026-.161s-.026-.08-.026-.187-.01-.188-.027-.188c-.015 0-.026-.12-.026-.305 0-.176-.01-.313-.026-.323-.034-.022-.034-.995 0-1.017.016-.008.026-.112.026-.23 0-.123.01-.211.026-.211s.027-.059.027-.131c0-.075.01-.142.026-.15.013-.008.026-.07.026-.136 0-.064.013-.118.026-.118.016 0 .026-.038.026-.08 0-.046.014-.08.027-.08.015 0 .026-.035.026-.078 0-.046.013-.088.026-.096.016-.008.026-.046.026-.08 0-.035.013-.073.027-.08.015-.009.026-.046.026-.084 0-.035.013-.064.026-.064.016 0 .026-.024.026-.053 0-.03.013-.054.026-.054.016 0 .027-.024.027-.05 0-.03.013-.062.026-.07.016-.008.026-.04.026-.07 0-.03.024-.078.052-.11.03-.032.053-.074.053-.093 0-.019.013-.035.026-.035.016 0 .026-.024.026-.053 0-.03.013-.054.027-.054.015 0 .026-.021.026-.048s.023-.064.052-.086c.029-.021.053-.056.053-.08s.023-.059.052-.08c.029-.022.052-.054.052-.07 0-.016.034-.067.08-.112a.35.35 0 0 0 .078-.11.71.71 0 0 1 .13-.16c.127-.131.132-.145.132-.284 0-.08-.01-.147-.026-.147-.013 0-.027-.037-.027-.08 0-.046-.01-.08-.026-.08-.013 0-.026-.038-.026-.08 0-.046-.01-.08-.026-.08-.013 0-.026-.054-.026-.119 0-.066-.01-.128-.027-.136-.013-.008-.026-.08-.026-.16s-.01-.153-.026-.161c-.037-.021-.037-.976 0-.976.016 0 .026-.07.026-.158s.013-.169.026-.177c.016-.008.027-.07.027-.133 0-.065.013-.126.026-.134.016-.008.026-.06.026-.11s.013-.09.026-.09c.016 0 .026-.049.026-.108s.014-.107.027-.107c.015 0 .026-.037.026-.08 0-.046.013-.08.026-.08.016 0 .026-.038.026-.08 0-.046.013-.08.026-.08.016 0 .027-.033.027-.07 0-.046.015-.075.052-.083.029-.008.053-.024.053-.038 0-.013.118-.024.262-.024.157 0 .262.01.262.027 0 .013.047.027.105.027.057 0 .105.01.105.026 0 .014.047.027.104.027.058 0 .105.01.105.027 0 .013.037.027.079.027.044 0 .079.01.079.026 0 .014.028.027.062.027.037 0 .074.01.082.027.008.013.04.027.068.027.026 0 .05.01.05.026 0 .014.036.027.078.027.045 0 .079.01.079.027 0 .013.024.027.052.027.03 0 .053.01.053.026 0 .014.023.027.05.027.028 0 .06.01.068.027.008.013.044.027.081.027.034 0 .063.01.063.026 0 .014.024.027.052.027.03 0 .053.01.053.027 0 .013.023.027.05.027.028 0 .06.01.068.026.008.014.044.027.081.027.034 0 .063.01.063.027 0 .013.024.027.05.027.029 0 .055.008.06.018a.392.392 0 0 0 .12.08c.06.035.16.089.223.121.06.035.116.07.118.08.006.014.03.022.056.022.023 0 .06.024.08.053.022.03.053.054.074.054.019 0 .058.024.09.053.03.03.073.054.091.054.018 0 .034.01.034.026 0 .014.021.027.047.027.027 0 .063.024.084.054.021.029.058.053.084.053.026 0 .047.01.047.027 0 .013.053.027.116.027.065 0 .125-.014.133-.027.008-.016.063-.027.12-.027.056 0 .103-.013.103-.027 0-.016.047-.026.105-.026.058 0 .105-.014.105-.027 0-.016.047-.027.105-.027.057 0 .104-.013.104-.027 0-.016.058-.026.129-.026.073 0 .139-.014.147-.027.008-.016.081-.027.16-.027.078 0 .141-.013.141-.027 0-.016.068-.026.155-.026.086 0 .165-.014.173-.027.008-.016.126-.027.262-.027s.254-.01.262-.027c.01-.016.202-.026.485-.026s.475-.011.485-.027c.008-.016.073-.027.144-.027s.137.01.144.027c.011.016.202.027.485.027.284 0 .475.01.485.026.008.016.126.027.263.027.136 0 .254.01.262.027.008.013.086.027.173.027.086 0 .154.01.154.026 0 .014.063.027.142.027.079 0 .152.01.16.027.008.013.073.027.147.027.07 0 .128.01.128.026 0 .014.047.027.105.027.058 0 .105.01.105.027 0 .013.047.027.105.027.057 0 .105.01.105.026 0 .014.047.027.102.027.057 0 .113.01.12.027.008.013.069.027.134.027.063 0 .115-.014.115-.027 0-.016.021-.027.047-.027.027 0 .064-.024.084-.053.021-.03.058-.054.084-.054.026 0 .047-.013.047-.027 0-.016.016-.026.035-.026.018 0 .06-.024.091-.054.032-.03.071-.053.09-.053.02 0 .052-.024.073-.054.02-.03.058-.053.084-.053.026 0 .047-.014.047-.027 0-.016.024-.027.052-.027.03 0 .053-.013.053-.027 0-.016.023-.026.05-.026.028 0 .055-.008.06-.022a.69.69 0 0 1 .212-.13c.024-.009.045-.025.045-.038 0-.014.023-.024.052-.024.029 0 .053-.014.053-.027 0-.016.023-.027.052-.027.029 0 .052-.013.052-.027 0-.016.024-.026.053-.026.029 0 .052-.014.052-.027 0-.016.03-.027.063-.027.037 0 .074-.013.082-.027.007-.016.039-.026.068-.026.026 0 .05-.014.05-.027 0-.016.023-.027.052-.027.029 0 .052-.013.052-.027 0-.016.037-.026.079-.026.044 0 .079-.014.079-.027 0-.016.023-.027.052-.027.029 0 .052-.013.052-.027 0-.016.024-.026.053-.026.029 0 .052-.014.052-.027 0-.016.037-.027.079-.027.045 0 .079-.013.079-.027 0-.016.036-.026.078-.026.045 0 .079-.014.079-.027 0-.016.04-.027.089-.027.05 0 .1-.013.107-.027.008-.016.063-.026.118-.026.056 0 .11-.014.118-.027.008-.016.131-.027.278-.027.244 0 .268.006.325.067a.222.222 0 0 1 .066.134c0 .037.013.067.026.067.016 0 .026.034.026.08 0 .043.013.08.026.08.016 0 .027.035.027.08 0 .043.013.08.026.08.016 0 .026.049.026.108s.013.107.026.107c.016 0 .027.034.027.08 0 .043.013.08.026.08.016 0 .026.064.026.145 0 .08.013.155.026.163.016.008.027.088.027.174 0 .085.013.165.026.173.015.011.026.193.026.458 0 .275-.01.439-.026.439s-.026.07-.026.157c0 .089-.011.169-.027.177-.013.008-.026.07-.026.136 0 .065-.01.118-.026.118-.013 0-.026.035-.026.08 0 .043-.01.08-.027.08-.013 0-.026.035-.026.08 0 .044-.01.081-.026.081-.013 0-.026.067-.026.147 0 .14.005.153.13.284a.71.71 0 0 1 .132.16c0 .014.037.062.079.11.044.045.078.096.078.112s.024.048.053.07c.028.021.052.056.052.08s.024.059.053.08c.028.022.052.06.052.086 0 .027.013.048.026.048.016 0 .026.024.026.053 0 .03.013.054.026.054.016 0 .027.019.027.04 0 .024.023.067.052.1a.214.214 0 0 1 .053.12c0 .034.013.061.026.061.016 0 .026.024.026.053 0 .03.013.054.026.054.016 0 .026.024.026.053 0 .03.014.054.027.054.015 0 .026.03.026.064 0 .038.013.075.026.083.016.008.026.046.026.08 0 .035.013.073.026.08.016.009.027.051.027.097 0 .043.013.078.026.078.016 0 .026.034.026.08 0 .042.013.08.026.08.016 0 .027.053.027.118 0 .067.013.128.026.136.016.008.026.075.026.15 0 .072.013.131.026.131.016 0 .026.094.026.225 0 .125.014.235.027.243.015.01.026.206.026.495 0 .289-.01.484-.026.495-.016.01-.026.147-.026.323 0 .185-.011.305-.027.305s-.026.08-.026.188c0 .107-.01.187-.026.187s-.026.072-.026.16c0 .089-.01.16-.027.16-.013 0-.026.049-.026.105 0 .059-.01.115-.026.123-.013.008-.026.06-.026.11s-.01.09-.027.09c-.013 0-.026.049-.026.108s-.01.107-.026.107c-.013 0-.026.035-.026.08 0 .043-.01.08-.026.08-.013 0-.027.035-.027.08 0 .043-.01.08-.026.08-.013 0-.026.036-.026.081 0 .043-.01.08-.026.08-.013 0-.026.035-.026.08 0 .043-.01.08-.027.08-.013 0-.026.025-.026.054 0 .03-.01.054-.026.054-.013 0-.026.024-.026.053 0 .03-.01.054-.027.054-.013 0-.026.024-.026.05 0 .03-.01.062-.026.07-.013.008-.026.046-.026.083 0 .035-.01.064-.026.064-.013 0-.026.019-.026.04 0 .024-.024.067-.053.1-.029.032-.052.074-.052.093 0 .019-.01.035-.027.035-.013 0-.026.024-.026.053 0 .03-.01.054-.026.054-.013 0-.026.018-.026.04 0 .021-.034.078-.079.126-.042.045-.078.096-.078.112s-.024.048-.053.07c-.029.02-.052.053-.052.072 0 .04-.645.703-.685.703-.015 0-.063.035-.102.08-.04.043-.089.08-.105.08-.018 0-.052.022-.076.049a.569.569 0 0 1-.112.083c-.042.021-.074.048-.074.061 0 .011-.018.022-.04.022-.023 0-.065.024-.096.053-.032.03-.073.054-.092.054-.018 0-.034.01-.034.027 0 .013-.023.026-.052.026-.03 0-.053.01-.053.027 0 .013-.023.027-.052.027-.03 0-.053.01-.053.026 0 .014-.023.027-.052.027-.029 0-.052.01-.052.027 0 .013-.024.027-.053.027-.029 0-.052.01-.052.026 0 .014-.024.027-.053.027-.029 0-.052.01-.052.027 0 .013-.024.027-.053.027-.029 0-.052.01-.052.026 0 .014-.024.027-.053.027-.028 0-.052.01-.052.027 0 .013-.024.027-.052.027-.03 0-.053.01-.053.027 0 .013-.034.026-.078.026-.042 0-.08.01-.08.027 0 .013-.028.027-.062.027-.037 0-.073.01-.081.027-.008.013-.04.026-.068.026-.027 0-.05.01-.05.027 0 .013-.04.027-.09.027-.05 0-.099.013-.107.026-.008.014-.05.027-.094.027-.042 0-.076.01-.076.027 0 .013-.047.027-.105.027-.058 0-.105.01-.105.026 0 .014-.058.027-.131.027-.07 0-.131.01-.131.027 0 .013-.047.027-.105.027-.058 0-.105.01-.105.026 0 .014-.063.027-.141.027-.079 0-.152.01-.16.027-.008.013-.092.027-.184.027-.091 0-.175.01-.183.027-.008.013-.097.026-.2.026-.102 0-.18.01-.18.027 0 .013-.024.027-.053.027-.089 0-.06.077.079.214a.603.603 0 0 1 .13.16c0 .019.035.067.08.107.041.04.078.094.078.118 0 .024.013.043.026.043.016 0 .027.018.027.04 0 .024.023.067.052.099a.214.214 0 0 1 .053.12c0 .035.013.062.026.062.015 0 .026.024.026.053 0 .03.013.054.026.054.016 0 .026.034.026.08 0 .043.014.08.027.08.015 0 .026.035.026.08 0 .043.013.08.026.08.016 0 .026.06.026.134 0 .073.013.134.026.134.016 0 .027.072.027.16 0 .089.01.161.026.161.018 0 .026.776.026 2.274s.008 2.274.026 2.274c.016 0 .026.034.026.08 0 .042.014.08.027.08.015 0 .026.019.026.04 0 .054.223.281.273.281.02 0 .047.01.055.027.02.035.616.035.616 0 0-.016.029-.027.063-.027.036 0 .073-.013.08-.027.009-.016.04-.026.069-.026.026 0 .05-.014.05-.027 0-.016.037-.027.078-.027.045 0 .08-.013.08-.027 0-.016.028-.027.062-.027.037 0 .073-.013.081-.026.008-.016.04-.027.068-.027.027 0 .05-.013.05-.027 0-.016.037-.027.079-.027.044 0 .078-.013.078-.026 0-.016.03-.027.063-.027.037 0 .074-.013.082-.027.008-.016.039-.026.068-.026.026 0 .05-.014.05-.027 0-.016.023-.027.052-.027.029 0 .052-.013.052-.027 0-.016.024-.026.053-.026.029 0 .052-.014.052-.027 0-.016.024-.027.053-.027.029 0 .052-.013.052-.027 0-.016.024-.026.053-.026.029 0 .052-.014.052-.027 0-.016.024-.027.05-.027.029 0 .06-.013.068-.027.008-.016.045-.027.081-.027.034 0 .063-.013.063-.026 0-.016.024-.027.053-.027.029 0 .052-.013.052-.027 0-.016.018-.027.04-.027.023 0 .065-.024.096-.053.032-.03.074-.053.092-.053.018 0 .034-.014.034-.027 0-.016.024-.027.053-.027.028 0 .052-.013.052-.027 0-.016.024-.026.052-.026.03 0 .053-.014.053-.027 0-.016.016-.027.034-.027.018 0 .06-.024.092-.053.031-.03.073-.054.097-.054.02 0 .039-.013.039-.027 0-.016.024-.027.052-.027.03 0 .053-.013.053-.026 0-.016.016-.027.034-.027.018 0 .058-.021.086-.045a.565.565 0 0 1 .124-.086c.039-.021.07-.048.07-.062 0-.01.016-.021.035-.021.018 0 .06-.024.091-.053.032-.03.066-.054.076-.054a.48.48 0 0 0 .113-.08.367.367 0 0 1 .126-.08c.016 0 .031-.011.031-.022 0-.013.032-.04.074-.061a.72.72 0 0 0 .141-.11c.037-.043.082-.075.1-.075a.424.424 0 0 0 .131-.107.427.427 0 0 1 .128-.107.45.45 0 0 0 .137-.107.537.537 0 0 1 .133-.107c.014 0 .116-.094.226-.206.11-.115.246-.243.301-.284a4.53 4.53 0 0 0 .57-.58c.033-.05.167-.198.293-.329.128-.128.23-.249.23-.265 0-.013.037-.061.08-.101.044-.04.078-.086.078-.102 0-.013.047-.075.105-.136a.498.498 0 0 0 .105-.137c0-.013.047-.077.104-.136a.49.49 0 0 0 .105-.142c0-.016.024-.048.053-.07.028-.021.052-.056.052-.08s.024-.059.052-.08c.03-.021.053-.056.053-.08s.023-.06.052-.08c.03-.022.053-.057.053-.078 0-.019.02-.056.047-.08a.534.534 0 0 0 .081-.118c.021-.04.047-.072.06-.072.011 0 .021-.016.021-.035 0-.019.021-.059.045-.088a.575.575 0 0 0 .084-.126c.02-.04.047-.072.06-.072.01 0 .021-.024.021-.054s.013-.053.026-.053c.016 0 .027-.024.027-.054s.013-.053.026-.053c.015 0 .026-.02.026-.04 0-.024.024-.067.052-.1.03-.032.053-.074.053-.093 0-.019.013-.035.026-.035.016 0 .026-.024.026-.053 0-.03.013-.054.027-.054.015 0 .026-.024.026-.053 0-.03.01-.054.02-.054.032 0 .137-.209.137-.27 0-.027.013-.05.026-.05.016 0 .026-.025.026-.054 0-.03.014-.054.027-.054.015 0 .026-.024.026-.053 0-.03.013-.054.026-.054.016 0 .026-.024.026-.053 0-.03.013-.054.026-.054.016 0 .027-.024.027-.053 0-.03.013-.054.026-.054.016 0 .026-.018.026-.04a.3.3 0 0 1 .026-.093c.016-.03.04-.078.053-.107a.302.302 0 0 0 .026-.094c0-.022.013-.04.026-.04.016 0 .026-.024.026-.051 0-.03.014-.062.027-.07.015-.008.026-.045.026-.083 0-.034.013-.064.026-.064.016 0 .026-.037.026-.08 0-.046.013-.08.026-.08.016 0 .027-.03.027-.064 0-.038.013-.075.026-.083.016-.008.026-.04.026-.07 0-.027.013-.05.026-.05.016 0 .027-.038.027-.081 0-.046.013-.08.026-.08.015 0 .026-.038.026-.08 0-.046.013-.08.026-.08.016 0 .026-.036.026-.078 0-.046.014-.089.027-.097.015-.008.026-.059.026-.11 0-.05.013-.09.026-.09.016 0 .026-.04.026-.091s.013-.102.026-.11c.016-.008.027-.05.027-.096 0-.043.013-.078.026-.078.016 0 .026-.048.026-.107s.013-.107.026-.107c.016 0 .027-.061.027-.133 0-.075.013-.134.026-.134.015 0 .026-.062.026-.134 0-.075.013-.134.026-.134.016 0 .026-.061.026-.133 0-.075.014-.134.027-.134.015 0 .026-.059.026-.131 0-.075.013-.142.026-.15.016-.008.026-.115.026-.238 0-.14.013-.233.032-.254.05-.048.05-3.43.002-3.448-.023-.005-.034-.07-.034-.195 0-.105-.01-.185-.026-.185s-.026-.07-.026-.158-.01-.168-.026-.176c-.014-.008-.027-.083-.027-.164 0-.08-.01-.144-.026-.144-.013 0-.026-.053-.026-.118 0-.067-.01-.128-.026-.136-.013-.008-.026-.064-.026-.123 0-.056-.01-.104-.027-.104-.013 0-.026-.049-.026-.107 0-.06-.01-.107-.026-.107-.013 0-.026-.049-.026-.108 0-.058-.01-.107-.026-.107-.014 0-.027-.04-.027-.09 0-.051-.01-.102-.026-.11-.013-.008-.026-.05-.026-.096 0-.043-.01-.078-.026-.078-.013 0-.027-.037-.027-.08 0-.046-.01-.08-.026-.08-.013 0-.026-.038-.026-.08 0-.046-.01-.081-.026-.081-.013 0-.026-.037-.026-.08 0-.046-.01-.08-.027-.08-.013 0-.026-.038-.026-.08 0-.046-.01-.08-.026-.08-.013 0-.026-.03-.026-.065 0-.038-.01-.075-.027-.083-.013-.008-.026-.04-.026-.07 0-.026-.01-.05-.026-.05-.013 0-.026-.038-.026-.08 0-.046-.01-.08-.026-.08-.014 0-.027-.03-.027-.065 0-.038-.01-.075-.026-.083-.013-.008-.026-.04-.026-.07 0-.026-.01-.05-.026-.05-.013 0-.026-.024-.026-.054s-.01-.053-.027-.053c-.013 0-.026-.024-.026-.054s-.01-.053-.026-.053c-.013 0-.026-.02-.026-.04 0-.04-.01-.067-.074-.193a.277.277 0 0 1-.031-.102c0-.021-.01-.04-.026-.04-.014 0-.027-.024-.027-.053 0-.03-.01-.054-.026-.054-.013 0-.026-.024-.026-.053 0-.03-.01-.054-.026-.054-.013 0-.026-.024-.026-.053 0-.03-.01-.054-.027-.054-.013 0-.026-.019-.026-.04 0-.024-.023-.067-.052-.099-.03-.032-.053-.075-.053-.094 0-.018-.01-.034-.026-.034-.013 0-.026-.024-.026-.054s-.01-.053-.026-.053c-.014 0-.027-.024-.027-.054s-.01-.053-.026-.053c-.013 0-.026-.024-.026-.054s-.01-.053-.026-.053c-.013 0-.026-.016-.026-.035 0-.019-.024-.062-.053-.094-.029-.032-.052-.072-.052-.09 0-.022-.024-.054-.053-.076-.029-.021-.052-.058-.052-.085 0-.027-.01-.048-.026-.048-.013 0-.027-.016-.027-.035 0-.019-.023-.062-.052-.094-.029-.032-.052-.072-.052-.09 0-.022-.024-.054-.053-.076-.029-.021-.052-.056-.052-.08s-.024-.059-.053-.08c-.029-.021-.052-.056-.052-.075 0-.021-.037-.072-.079-.112-.042-.04-.078-.091-.078-.113 0-.018-.024-.053-.053-.075-.029-.021-.052-.053-.052-.07 0-.015-.037-.066-.079-.111a.366.366 0 0 1-.078-.115.432.432 0 0 0-.105-.132.473.473 0 0 1-.105-.128.643.643 0 0 0-.131-.163.785.785 0 0 1-.131-.163c0-.035-1.33-1.391-1.366-1.391a.426.426 0 0 1-.129-.107.475.475 0 0 0-.123-.107.816.816 0 0 1-.165-.134.734.734 0 0 0-.163-.134.45.45 0 0 1-.104-.08c-.045-.045-.095-.08-.11-.08-.016 0-.048-.024-.069-.054-.02-.03-.052-.053-.07-.053-.019 0-.071-.038-.118-.08-.045-.046-.095-.08-.11-.08-.016 0-.048-.025-.069-.054-.02-.03-.055-.054-.078-.054-.024 0-.058-.024-.079-.053-.02-.03-.058-.054-.084-.054-.026 0-.047-.013-.047-.026 0-.017-.016-.027-.034-.027-.018 0-.06-.024-.092-.054-.031-.03-.07-.053-.089-.053-.02 0-.052-.024-.073-.054-.021-.03-.058-.053-.084-.053-.026 0-.047-.014-.047-.027 0-.016-.016-.027-.034-.027-.019 0-.06-.024-.092-.053-.032-.03-.074-.054-.097-.054-.021 0-.04-.013-.04-.026 0-.016-.023-.027-.052-.027-.029 0-.052-.014-.052-.027 0-.016-.024-.027-.053-.027-.029 0-.052-.013-.052-.026 0-.016-.024-.027-.05-.027-.029 0-.055-.008-.06-.022a.707.707 0 0 0-.21-.13c-.026-.009-.047-.025-.047-.038 0-.013-.024-.024-.053-.024-.028 0-.052-.014-.052-.027 0-.016-.024-.027-.05-.027-.029 0-.06-.013-.068-.026-.008-.016-.045-.027-.081-.027-.034 0-.063-.014-.063-.027 0-.016-.024-.027-.053-.027-.029 0-.052-.013-.052-.026 0-.016-.024-.027-.052-.027-.03 0-.053-.014-.053-.027 0-.016-.024-.027-.052-.027-.03 0-.053-.013-.053-.026 0-.016-.023-.027-.05-.027-.028 0-.06-.014-.068-.027-.008-.016-.044-.027-.081-.027-.034 0-.063-.013-.063-.026 0-.016-.024-.027-.05-.027-.029 0-.06-.014-.068-.027-.008-.016-.044-.027-.081-.027-.034 0-.063-.013-.063-.026 0-.016-.034-.027-.079-.027-.042 0-.078-.014-.078-.027 0-.016-.024-.027-.05-.027-.029 0-.06-.013-.068-.026-.008-.016-.045-.027-.082-.027-.034 0-.063-.014-.063-.027 0-.016-.034-.027-.078-.027-.042 0-.079-.013-.079-.026 0-.016-.034-.027-.076-.027-.044 0-.086-.014-.094-.027-.008-.016-.058-.027-.108-.027-.05 0-.089-.013-.089-.026 0-.016-.034-.027-.078-.027-.042 0-.08-.014-.08-.027 0-.016-.033-.027-.078-.027-.042 0-.078-.013-.078-.026 0-.016-.053-.027-.116-.027-.065 0-.126-.014-.133-.027-.008-.016-.063-.027-.121-.027-.055 0-.102-.013-.102-.026 0-.016-.047-.027-.105-.027-.058 0-.105-.014-.105-.027 0-.016-.058-.027-.131-.027-.07 0-.131-.013-.131-.026 0-.016-.07-.027-.157-.027s-.158-.01-.158-.027c0-.016-.07-.027-.157-.027-.086 0-.157-.01-.157-.026s-.087-.027-.21-.027-.21-.01-.21-.027c0-.016-.112-.027-.288-.027s-.288-.01-.288-.026-.36-.027-1.023-.027c-.663 0-1.022.01-1.022.027Z"/></svg>