<svg xmlns="http://www.w3.org/2000/svg" fill="none" viewBox="0 0 28 28"><path fill="#D9D9D9" d="M12.363.628c-1.467.221-2.646.583-3.961 1.225C4.426 3.78 1.715 7.448.935 11.958c-.195 1.107-.21 3.152-.036 4.28.585 3.84 2.63 7.153 5.717 9.294.904.62 1.49.952 2.277 1.284 2.046.856 3.491 1.13 5.675 1.063 1.908-.052 3.375-.377 4.98-1.1 2.935-1.314 5.27-3.61 6.7-6.591 2.617-5.462 1.338-12.135-3.115-16.18A13.332 13.332 0 0 0 15.97.629c-.904-.133-2.747-.133-3.607 0Zm.578 8.488c1.135 1.565 2.082 2.842 2.104 2.842.05 0 .932-.96 3.925-4.266l1.286-1.418h1.46l-.253.274c-.144.155-.86.944-1.59 1.756-.737.812-1.966 2.17-2.732 3.012-.766.849-1.374 1.58-1.36 1.631.03.081 5.43 7.492 6.39 8.776l.319.42h-4.966l-2.198-3.003c-1.214-1.646-2.24-3.049-2.284-3.108-.057-.08-.643.524-2.891 3.004l-2.812 3.108h-.715c-.665 0-.709-.008-.615-.126.058-.073 1.482-1.653 3.173-3.52 1.692-1.86 3.08-3.41 3.094-3.44.015-.037-1.142-1.646-2.566-3.587a718.756 718.756 0 0 1-3.123-4.274l-.607-.834c-.05-.066.441-.089 2.414-.089l2.487.008 2.06 2.834Z"/><path fill="#D9D9D9" d="M8.098 7.419c0 .014 1.453 2.015 3.238 4.443 1.779 2.428 4.012 5.484 4.966 6.79l1.735 2.377 1.142.008h1.142l-.289-.392c-.542-.76-8.71-11.905-9.209-12.584l-.506-.68H9.211c-.614 0-1.113.015-1.113.038Z"/></svg>